<?xml version="1.0" standalone="no"?>
<!DOCTYPE svg PUBLIC "-//W3C//DTD SVG 20010904//EN"
 "http://www.w3.org/TR/2001/REC-SVG-20010904/DTD/svg10.dtd">
<svg version="1.0" xmlns="http://www.w3.org/2000/svg"
 width="260.000000pt" height="260.000000pt" viewBox="0 0 260.000000 260.000000"
 preserveAspectRatio="xMidYMid meet">
<metadata>
Created by potrace 1.11, written by Peter Selinger 2001-2013
</metadata>
<g transform="translate(0.000000,260.000000) scale(0.100000,-0.100000)"
fill="#000000" stroke="none">
<path d="M1647 2369 c-24 -14 -47 -69 -47 -111 0 -17 9 -50 20 -72 41 -86 128
-98 166 -24 56 108 -47 260 -139 207z"/>
<path d="M2178 2130 c-187 -58 -398 -322 -451 -567 -46 -207 -291 -443 -374
-360 -46 45 3 207 128 427 113 199 151 303 142 387 -8 74 -46 119 -78 93 -16
-13 -74 -97 -100 -145 -6 -11 -32 -56 -58 -101 -26 -45 -76 -142 -112 -217
-65 -136 -109 -195 -219 -296 -52 -49 -178 -143 -226 -170 l-40 -22 36 78 c20
43 40 88 44 100 5 12 67 138 138 280 71 142 134 274 140 293 48 144 -18 298
-84 197 -38 -56 -69 -110 -114 -192 -92 -172 -115 -214 -173 -315 -157 -276
-289 -417 -370 -397 -88 23 -26 223 170 550 99 164 122 263 79 345 -19 38 -27
43 -53 36 -17 -5 -123 -140 -123 -158 0 -3 -13 -24 -29 -48 -46 -70 -126 -225
-176 -342 -46 -110 -75 -218 -75 -283 0 -85 47 -158 116 -181 75 -25 193 11
273 83 l42 38 -36 -84 c-19 -46 -39 -85 -44 -87 -38 -13 -185 -90 -244 -128
-192 -124 -316 -321 -305 -484 6 -76 51 -174 100 -216 81 -68 215 14 347 211
70 105 186 332 257 504 35 83 43 96 74 108 143 60 270 135 345 204 25 23 45
38 46 33 12 -139 88 -203 227 -191 37 3 85 13 107 22 77 32 178 117 211 178
11 19 14 16 38 -36 112 -237 486 -225 732 23 70 70 104 129 111 194 7 59 -16
78 -46 39 -114 -148 -143 -180 -227 -249 -90 -75 -235 -118 -310 -94 -71 24
-115 111 -109 217 4 61 26 165 34 161 3 -2 36 -18 72 -36 109 -55 203 -44 310
34 50 37 115 115 148 180 32 61 50 160 38 207 -19 75 -156 186 -235 192 -21 1
-63 -5 -94 -15z m186 -146 c-1 -50 -39 -131 -100 -214 -86 -117 -158 -166
-232 -157 -64 7 -70 18 -43 74 78 162 271 349 351 341 22 -3 25 -7 24 -44z
m-1907 -1146 c-181 -375 -383 -602 -336 -379 29 142 136 305 275 419 50 41
108 81 112 77 2 -2 -21 -54 -51 -117z"/>
</g>
</svg>
